<?xml version="1.0" standalone="no"?>
<!DOCTYPE svg PUBLIC "-//W3C//DTD SVG 20010904//EN"
 "http://www.w3.org/TR/2001/REC-SVG-20010904/DTD/svg10.dtd">
<svg version="1.0" xmlns="http://www.w3.org/2000/svg"
 width="7680.000000pt" height="5544.000000pt" viewBox="0 0 7680.000000 5544.000000"
 preserveAspectRatio="xMidYMid meet">

<g transform="translate(0.000000,5544.000000) scale(0.100000,-0.100000)"
fill="#0044ff" stroke="none">
<path d="M36139 54546 c-2 -2 -166 -6 -365 -10 -199 -4 -372 -8 -385 -11 -13
-2 -109 -6 -214 -10 -104 -4 -206 -8 -225 -10 -19 -1 -93 -6 -165 -9 -71 -4
-152 -8 -180 -11 -27 -2 -84 -7 -125 -10 -652 -43 -1380 -129 -1945 -229 -567
-101 -1033 -216 -1501 -371 -175 -58 -392 -139 -482 -181 -41 -19 -78 -34 -84
-34 -16 0 -400 -194 -485 -244 -43 -26 -87 -53 -98 -59 -11 -7 -76 -50 -145
-96 -296 -200 -490 -382 -704 -664 -49 -65 -97 -149 -174 -302 -92 -184 -141
-338 -177 -554 -16 -100 -73 -426 -79 -456 -2 -11 -9 -40 -14 -65 -6 -25 -13
-61 -16 -80 -12 -79 -87 -425 -121 -555 -20 -77 -38 -147 -40 -155 -60 -237
-140 -533 -160 -590 -15 -41 -29 -86 -31 -100 -20 -100 -371 -1137 -429 -1265
-7 -16 -41 -104 -74 -195 -57 -157 -105 -279 -135 -345 -8 -16 -42 -102 -76
-190 -34 -88 -65 -164 -70 -170 -4 -5 -17 -32 -28 -60 -48 -122 -148 -357
-184 -435 -22 -47 -68 -150 -103 -230 -34 -80 -89 -201 -122 -270 -34 -69 -82
-174 -109 -235 -26 -60 -51 -112 -54 -115 -3 -3 -29 -57 -59 -120 -30 -63
-119 -247 -198 -407 -79 -161 -143 -296 -142 -299 0 -4 -3 -10 -8 -13 -5 -3
-52 -91 -105 -196 -121 -241 -326 -635 -337 -649 -5 -6 -37 -65 -71 -131 -35
-66 -95 -178 -135 -250 -40 -71 -90 -163 -111 -203 -52 -97 -174 -315 -242
-432 -30 -52 -85 -149 -122 -215 -36 -66 -93 -165 -126 -220 -33 -55 -82 -140
-109 -190 -27 -49 -54 -95 -60 -102 -7 -6 -18 -25 -25 -42 -7 -17 -16 -31 -21
-31 -5 0 -9 -4 -9 -8 0 -10 -110 -203 -175 -307 -28 -43 -77 -125 -110 -181
-92 -158 -233 -389 -300 -494 -34 -52 -83 -131 -109 -175 -54 -92 -178 -289
-263 -420 -32 -49 -87 -137 -123 -195 -65 -103 -153 -239 -267 -413 -32 -49
-94 -145 -138 -213 -44 -68 -96 -148 -116 -177 -20 -28 -117 -173 -215 -321
-225 -338 -342 -511 -474 -701 -57 -82 -142 -206 -189 -275 -46 -69 -88 -127
-91 -130 -4 -3 -47 -63 -96 -135 -48 -71 -109 -157 -135 -190 -25 -33 -74
-103 -109 -155 -35 -52 -66 -97 -69 -100 -9 -8 -81 -106 -136 -185 -27 -38
-65 -90 -85 -115 -20 -25 -68 -90 -106 -145 -37 -55 -77 -109 -87 -120 -11
-11 -51 -65 -90 -120 -39 -55 -82 -114 -97 -131 -14 -16 -35 -43 -47 -60 -225
-301 -470 -617 -593 -763 -31 -36 -78 -95 -104 -131 -27 -36 -54 -69 -60 -75
-7 -5 -43 -50 -81 -100 -78 -102 -177 -228 -186 -235 -3 -3 -34 -43 -69 -90
-35 -47 -83 -108 -107 -137 -24 -28 -72 -87 -106 -132 -76 -98 -255 -319 -281
-346 -10 -11 -53 -63 -94 -115 -42 -52 -93 -113 -113 -135 -21 -22 -70 -79
-111 -127 -117 -140 -249 -290 -282 -324 -17 -16 -49 -50 -70 -75 -139 -157
-636 -665 -787 -803 -30 -27 -115 -106 -189 -175 -249 -231 -537 -474 -872
-733 -184 -143 -597 -440 -685 -493 -10 -5 -40 -25 -68 -44 -67 -47 -356 -231
-360 -231 -2 0 -47 -27 -99 -60 -53 -33 -98 -60 -101 -60 -3 0 -45 -25 -94
-55 -49 -30 -92 -55 -95 -55 -3 0 -43 -22 -88 -48 -314 -184 -996 -516 -1368
-666 -337 -136 -406 -163 -685 -265 -118 -43 -451 -154 -525 -175 -25 -7 -119
-35 -210 -63 -866 -263 -1911 -474 -2875 -583 -354 -39 -817 -93 -915 -106
-63 -8 -148 -19 -189 -24 -632 -82 -1629 -255 -2151 -375 -390 -89 -660 -155
-825 -200 -49 -14 -146 -40 -215 -59 -69 -19 -181 -51 -250 -71 -69 -21 -168
-50 -220 -66 -178 -52 -583 -190 -845 -287 -165 -61 -230 -87 -475 -189 -317
-133 -842 -384 -1032 -494 -36 -22 -69 -39 -72 -39 -3 0 -51 -27 -107 -60 -55
-33 -103 -60 -105 -60 -5 0 -235 -143 -319 -199 -38 -25 -74 -48 -80 -50 -5
-2 -30 -18 -55 -36 -25 -17 -92 -64 -150 -104 -58 -41 -123 -88 -145 -105 -22
-17 -51 -39 -65 -47 -40 -26 -284 -223 -436 -353 -163 -140 -566 -541 -677
-675 -43 -51 -89 -105 -103 -119 -77 -81 -379 -492 -489 -664 l-55 -88 0
-12195 0 -12195 19650 0 19650 0 1 -90 c2 -115 1 -112 18 -118 8 -3 11 0 7 7
-5 7 -1 9 11 4 10 -3 15 -3 11 2 -4 4 -3 15 2 25 10 19 66 21 64 2 -3 -33 -6
-35 -20 -12 -11 18 -14 20 -10 5 l6 -20 -16 20 c-14 17 -16 17 -10 2 4 -13 2
-16 -7 -11 -6 4 -8 3 -4 -1 4 -5 13 -10 20 -11 7 -1 17 -3 22 -4 25 -6 32 3
32 38 0 20 1 65 2 100 l1 62 18685 0 18685 0 0 12195 0 12195 -66 107 c-1398
2261 -4093 3624 -8369 4232 -186 27 -778 101 -925 117 -896 94 -1982 320
-2831 588 -432 136 -1000 344 -1234 451 -27 12 -75 33 -105 45 -59 24 -98 41
-200 89 -36 17 -112 53 -170 80 -229 106 -344 163 -482 237 -78 42 -159 85
-178 96 -19 10 -42 22 -50 27 -8 5 -85 49 -170 97 -1074 607 -2143 1472 -3071
2484 -457 498 -774 891 -1523 1883 -918 1218 -1180 1584 -1851 2587 -2224
3328 -4041 6722 -5065 9465 -332 887 -625 1846 -781 2549 -30 135 -98 460
-104 498 -5 29 -32 176 -40 219 -4 22 -14 81 -20 127 -3 20 -8 48 -10 62 -3
14 -7 43 -11 65 -31 225 -61 359 -114 510 -180 513 -576 960 -1165 1314 -93
56 -404 217 -510 263 -403 178 -856 323 -1427 458 -435 102 -1167 219 -1733
274 -27 3 -72 8 -100 10 -61 7 -384 34 -480 41 -38 3 -97 8 -130 10 -33 2
-107 7 -165 11 -58 3 -125 7 -150 9 -25 2 -126 6 -225 10 -99 4 -190 8 -203
10 -55 9 -755 20 -1227 20 -453 0 -1124 -10 -1290 -20 -33 -2 -145 -6 -250 -9
-104 -4 -226 -9 -270 -11 -44 -2 -123 -7 -175 -9 -52 -3 -158 -9 -235 -13
-238 -13 -736 -7 -905 12 -19 2 -120 7 -225 10 -104 4 -210 8 -235 10 -25 2
-151 6 -280 10 -129 3 -282 8 -340 11 -128 6 -1565 16 -1571 10z"/>
<path d="M39340 889 c0 -5 5 -7 10 -4 6 3 10 8 10 11 0 2 -4 4 -10 4 -5 0 -10
-5 -10 -11z"/>
</g>
</svg>
