<svg width="24" height="34" viewBox="0 0 24 34" fill="none" xmlns="http://www.w3.org/2000/svg">
<path d="M21.3909 10.1625C20.8967 6.58531 17.8588 5.45858 14.0764 5.21127L13.8517 0.237766L10.9335 0.311715L11.1523 5.15413C10.3852 5.17359 9.60167 5.2091 8.82329 5.24488L8.60365 0.370391L5.68697 0.443895L5.91037 5.41601C5.27916 5.44533 4.65924 5.47316 4.05425 5.48884L4.05317 5.47343L0.0281314 5.57356L0.174873 8.80683C0.174873 8.80683 2.32796 8.70983 2.294 8.7519C3.47606 8.72245 3.89292 9.42463 4.03255 10.0361L4.28861 15.702C4.3702 15.7004 4.47677 15.7012 4.59802 15.7153C4.50081 15.7179 4.39672 15.7198 4.28977 15.7235L4.64738 23.6608C4.61293 24.048 4.42204 24.6688 3.59626 24.6912C3.63515 24.7245 1.47489 24.7441 1.47489 24.7441L1.05829 28.3741L4.85596 28.2782C5.56273 28.2612 6.25866 28.2561 6.94152 28.2434L7.16985 33.2735L10.085 33.2004L9.8602 28.2235C10.6614 28.2204 11.4363 28.2075 12.1925 28.1877L12.4149 33.1417L15.3331 33.0678L15.1073 28.0466C20.0003 27.6308 23.3762 26.2619 23.5869 21.4717C23.7574 17.6145 21.9347 15.9413 19.1184 15.3178C20.77 14.3814 21.7567 12.7799 21.3909 10.1625ZM17.7937 21.0211C17.965 24.7801 11.7411 24.5091 9.76346 24.5609L9.46331 17.8963C11.4417 17.8469 17.6169 17.1003 17.7937 21.0211ZM16.0119 11.6525C16.1654 15.0725 10.9729 14.8039 9.32549 14.8456L9.05276 8.80114C10.7001 8.75944 15.8505 8.0854 16.0119 11.6525Z" fill="#000D30"/>
</svg>
