<svg width="31" height="31" viewBox="0 0 31 31" fill="none" xmlns="http://www.w3.org/2000/svg">
<path fill-rule="evenodd" clip-rule="evenodd" d="M3.41369 27.6596C3.89829 28.1439 4.55521 28.4161 5.24035 28.4161H19.5598C20.2449 28.4161 20.9019 28.1439 21.3865 27.6596L21.4599 27.5862C21.9442 27.1016 22.2164 26.4446 22.2164 25.7595V11.44C22.2164 10.7549 21.9442 10.098 21.4599 9.61338L21.3865 9.53997C20.9019 9.05561 20.2449 8.7834 19.5598 8.7834H5.24035C4.55521 8.7834 3.8983 9.0556 3.41369 9.53997L3.34028 9.61338C2.85592 10.098 2.58372 10.7549 2.58372 11.44V25.7595C2.58372 26.4446 2.85591 27.1015 3.34028 27.5862L3.41369 27.6596ZM23.2858 7.78747L23.2124 7.71381C22.2437 6.7451 20.9296 6.20068 19.5593 6.20068H5.23985C3.86952 6.20068 2.55549 6.74508 1.58678 7.71381L1.51312 7.78747C0.544415 8.75618 0 10.0705 0 11.4405V25.76C0 27.1301 0.544395 28.4444 1.51312 29.4133L1.58678 29.4865C2.55549 30.4554 3.86958 30.9999 5.23985 30.9999H19.5593C20.9296 30.9999 22.2437 30.4555 23.2124 29.4865L23.2858 29.4133C24.2548 28.4444 24.7992 27.1301 24.7992 25.76V11.4405C24.7992 10.0705 24.2548 8.75618 23.2858 7.78747Z" fill="#0044FF"/>
<path fill-rule="evenodd" clip-rule="evenodd" d="M24.7995 22.2159H25.7594C26.4445 22.2159 27.1014 21.9438 27.5861 21.4594L27.6595 21.386C28.1438 20.9014 28.416 20.2444 28.416 19.5593V5.23985C28.416 4.55472 28.1438 3.8978 27.6595 3.41319L27.5861 3.33978C27.1014 2.85543 26.4445 2.58322 25.7594 2.58322H11.4399C10.7548 2.58322 10.0979 2.85541 9.61327 3.33978L9.53986 3.41319C9.0555 3.8978 8.7833 4.55472 8.7833 5.23985V6.19971H6.20007V5.23985C6.20007 3.86952 6.74447 2.55549 7.7132 1.58678L7.78686 1.51312C8.75557 0.544415 10.0697 0 11.4399 0H25.7594C27.1295 0 28.4437 0.544395 29.4127 1.51312L29.4859 1.58678C30.4548 2.55549 30.9992 3.86958 30.9992 5.23985V19.5593C30.9992 20.9296 30.4548 22.2437 29.4859 23.2124L29.4127 23.2858C28.4437 24.2548 27.1295 24.7992 25.7594 24.7992H24.7995L24.7995 22.2159Z" fill="#0044FF"/>
</svg>
