<svg width="27" height="22" viewBox="0 0 27 22" fill="none" xmlns="http://www.w3.org/2000/svg">
<path d="M21 21.0007L20.6464 21.3543L21 21.7078L21.3536 21.3543L21 21.0007ZM14.75 1.75073C14.4739 1.75073 14.25 1.97459 14.25 2.25073C14.25 2.52687 14.4739 2.75073 14.75 2.75073L14.75 1.75073ZM15.6464 16.3543L20.6464 21.3543L21.3536 20.6472L16.3536 15.6472L15.6464 16.3543ZM21.3536 21.3543L26.3536 16.3543L25.6464 15.6472L20.6464 20.6472L21.3536 21.3543ZM21.5 21.0007L21.5 6.25073L20.5 6.25073L20.5 21.0007L21.5 21.0007ZM17 1.75073L14.75 1.75073L14.75 2.75073L17 2.75073L17 1.75073ZM21.5 6.25073C21.5 3.76545 19.4853 1.75073 17 1.75073L17 2.75073C18.933 2.75073 20.5 4.31774 20.5 6.25073L21.5 6.25073Z" fill="#0044FF"/>
<path d="M6 1.00073L6.35355 0.647179L6 0.293625L5.64645 0.647179L6 1.00073ZM12.25 20.2507C12.5261 20.2507 12.75 20.0269 12.75 19.7507C12.75 19.4746 12.5261 19.2507 12.25 19.2507L12.25 20.2507ZM11.3536 5.64718L6.35355 0.647179L5.64645 1.35429L10.6464 6.35429L11.3536 5.64718ZM5.64645 0.647179L0.646446 5.64718L1.35355 6.35429L6.35355 1.35429L5.64645 0.647179ZM5.5 1.00073L5.5 15.7507L6.5 15.7507L6.5 1.00073L5.5 1.00073ZM10 20.2507L12.25 20.2507L12.25 19.2507L10 19.2507L10 20.2507ZM5.5 15.7507C5.5 18.236 7.51472 20.2507 10 20.2507L10 19.2507C8.067 19.2507 6.5 17.6837 6.5 15.7507L5.5 15.7507Z" fill="#0044FF"/>
</svg>
